<svg width="61" height="29" viewBox="0 0 61 29" fill="none" xmlns="http://www.w3.org/2000/svg">
<path d="M2.69139 8.40235C2.36329 8.30865 2.02339 8.16795 1.67189 7.98045C1.34379 7.76955 1.03909 7.53515 0.757785 7.27735C0.499985 6.99605 0.30079 6.69145 0.16019 6.36325C0.01949 6.03515 -0.0156093 5.68365 0.0546907 5.30865C0.195291 4.53515 0.64059 3.80865 1.39059 3.12895C2.14059 2.44925 3.14839 1.91015 4.41409 1.51175V1.40625C4.43749 1.14845 4.60158 0.89065 4.90618 0.63285C5.23438 0.35155 5.63279 0.16405 6.10159 0.07035C6.54689 -0.02345 6.86328 -0.02345 7.05078 0.07035C7.26168 0.16405 7.36719 0.29295 7.36719 0.45705C7.36719 0.50395 7.35549 0.56255 7.33199 0.63285C7.33199 0.67965 7.33199 0.726552 7.33199 0.773452V0.949252C8.48049 0.855452 9.75779 0.890653 11.1641 1.05465C12.8516 1.26565 14.2227 1.66405 15.2773 2.25005C16.332 2.83595 17.1289 3.51565 17.668 4.28905C18.207 5.03905 18.5352 5.82425 18.6523 6.64455C18.793 7.46485 18.793 8.21485 18.6523 8.89455C18.5117 9.69145 18.2539 10.418 17.8789 11.0743C17.5039 11.7071 17.0586 12.2813 16.543 12.7969C16.0273 13.2891 15.4531 13.7226 14.8203 14.0976C14.1875 14.4726 13.5195 14.7891 12.8164 15.0469C13.5664 15.211 14.1992 15.4805 14.7148 15.8555C15.2539 16.2071 15.6875 16.6289 16.0156 17.121C16.3438 17.6132 16.5781 18.1641 16.7188 18.7735C16.8594 19.3829 16.9062 20.0039 16.8594 20.6367C16.8125 21.621 16.5547 22.5469 16.0859 23.4141C15.6406 24.2579 15.0312 24.9961 14.2578 25.629C13.4844 26.2618 12.5586 26.754 11.4805 27.1055C10.4258 27.4571 9.25389 27.6094 7.96479 27.5626H7.54299C7.19139 27.8672 6.80469 28.0899 6.38279 28.2305C5.98439 28.3946 5.59769 28.5118 5.22269 28.5821C4.80079 28.6758 4.37889 28.711 3.95699 28.6876C3.95699 28.5235 3.95699 28.3476 3.95699 28.1601C3.98049 27.996 3.99219 27.8321 3.99219 27.668C3.99219 27.4805 4.00389 27.293 4.02729 27.1055C3.74609 27.0587 3.47659 26.9883 3.21879 26.8946C2.98439 26.8243 2.73829 26.7422 2.48049 26.6485C2.24609 26.5782 2.03519 26.4961 1.84769 26.4024C1.75389 26.2618 1.68359 26.086 1.63669 25.8751C1.58979 25.6876 1.55468 25.4765 1.53118 25.2421C1.53118 25.0312 1.57809 24.7852 1.67189 24.504C2.39839 24.7852 3.23049 24.996 4.16799 25.1367C4.21479 23.9414 4.24999 22.5235 4.27339 20.8829C4.32029 19.2422 4.34379 17.5196 4.34379 15.7149C4.34379 13.6758 4.34379 11.6719 4.34379 9.70315C4.36719 7.73435 4.37889 6.04685 4.37889 4.64065C3.69919 4.99215 3.17189 5.47265 2.79689 6.08205C2.42189 6.69145 2.38669 7.46485 2.69139 8.40235ZM13.5195 20.8126C13.6133 19.7813 13.4609 18.961 13.0625 18.3516C12.6641 17.7188 12.1367 17.2501 11.4805 16.9454C10.8477 16.6172 10.1445 16.4179 9.37109 16.3476C8.62109 16.2773 7.94139 16.2657 7.33199 16.3126C7.37889 18.2579 7.41409 20.0273 7.43749 21.621C7.46089 23.1914 7.48439 24.4805 7.50779 25.4883C8.23439 25.5118 8.93749 25.4296 9.61719 25.2421C10.2969 25.0546 10.9062 24.7618 11.4453 24.3633C12.0078 23.9649 12.4766 23.4726 12.8516 22.8867C13.2266 22.2773 13.4492 21.586 13.5195 20.8126ZM7.26169 3.83205C7.21479 5.02735 7.19139 6.44535 7.19139 8.08595C7.19139 9.72655 7.21479 11.5546 7.26169 13.5703C7.26169 13.7578 7.26169 13.9453 7.26169 14.1328C7.26169 14.2968 7.27339 14.4726 7.29689 14.6601C8.14059 14.5898 9.01949 14.3907 9.93359 14.0626C10.8477 13.711 11.6797 13.254 12.4297 12.6915C13.2031 12.129 13.8359 11.4727 14.3281 10.7227C14.8203 9.94925 15.0664 9.10545 15.0664 8.19145C15.0664 7.48825 14.8789 6.86715 14.5039 6.32815C14.1289 5.76565 13.625 5.29685 12.9922 4.92185C12.3828 4.54685 11.668 4.26565 10.8477 4.07815C10.0508 3.89065 9.21879 3.79685 8.35159 3.79685C8.16409 3.79685 7.97659 3.79685 7.78909 3.79685C7.62499 3.79685 7.44919 3.80865 7.26169 3.83205ZM29.2344 18.668C29.1875 19.5821 29.0234 20.4257 28.7422 21.1992C28.4844 21.9726 28.1211 22.6524 27.6523 23.2383C27.1836 23.8008 26.6211 24.246 25.9648 24.5742C25.332 24.9023 24.6289 25.0782 23.8555 25.1016C23.1758 25.1251 22.5312 24.961 21.9219 24.6094C21.3359 24.2579 20.8203 23.7657 20.375 23.1329C19.9297 22.5001 19.5898 21.7501 19.3555 20.8829C19.1445 19.9922 19.0859 19.0313 19.1797 18.0001C19.25 16.8047 19.4727 15.7852 19.8477 14.9415C20.2227 14.0743 20.6211 13.3594 21.043 12.7969C21.4648 12.2344 21.8516 11.8243 22.2031 11.5665C22.5781 11.2852 22.8125 11.1211 22.9062 11.0743C23.0703 11.004 23.2227 10.9922 23.3633 11.0391C23.5039 11.0626 23.6562 11.0976 23.8203 11.1445C23.8672 11.1679 23.9141 11.2265 23.9609 11.3203C24.0547 11.4843 24.1133 11.7891 24.1367 12.2344C24.2539 11.9766 24.4062 11.7657 24.5938 11.6016C24.7812 11.4376 24.9688 11.3203 25.1562 11.25C25.3906 11.1562 25.625 11.0977 25.8594 11.0743C26.0234 11.0508 26.3047 11.1797 26.7031 11.461C27.125 11.7422 27.5234 12.1876 27.8984 12.7969C28.2969 13.4063 28.6367 14.2032 28.918 15.1876C29.1992 16.1485 29.3047 17.3087 29.2344 18.668ZM26.8438 18.246C26.8672 17.6836 26.8438 17.1211 26.7734 16.5587C26.7266 15.9727 26.6328 15.4454 26.4922 14.9766C26.375 14.4844 26.2227 14.0977 26.0352 13.8165C25.8477 13.5118 25.6602 13.3594 25.4727 13.3594C25.2617 13.4063 25.0273 13.5117 24.7695 13.6757C24.5586 13.8164 24.3242 14.039 24.0664 14.3437C23.8086 14.6484 23.5625 15.0821 23.3281 15.6446C23.3047 15.5743 23.2812 15.4453 23.2578 15.2578C23.2344 15.0937 23.2109 14.8829 23.1875 14.6251C23.1875 14.3438 23.2109 13.9688 23.2578 13.5001C22.9297 13.8985 22.6719 14.3671 22.4844 14.9062C22.3203 15.4453 22.1914 15.9609 22.0977 16.4531C22.0039 17.039 21.9336 17.6251 21.8867 18.211C21.8633 18.8438 21.8867 19.4648 21.957 20.0742C22.0508 20.6836 22.1914 21.2227 22.3789 21.6915C22.5898 22.1602 22.8359 22.5352 23.1172 22.8165C23.3984 23.0977 23.7383 23.2265 24.1367 23.2031C24.5352 23.1796 24.8867 23.0157 25.1914 22.711C25.4961 22.4063 25.7656 22.0196 26 21.5508C26.2344 21.0821 26.4219 20.5547 26.5625 19.9688C26.7031 19.3828 26.7969 18.8086 26.8438 18.246ZM40.836 18.668C40.789 19.5821 40.625 20.4257 40.344 21.1992C40.086 21.9726 39.723 22.6524 39.254 23.2383C38.785 23.8008 38.223 24.246 37.566 24.5742C36.934 24.9023 36.23 25.0782 35.457 25.1016C34.777 25.1251 34.133 24.961 33.523 24.6094C32.938 24.2579 32.422 23.7657 31.977 23.1329C31.531 22.5001 31.191 21.7501 30.957 20.8829C30.746 19.9922 30.688 19.0313 30.781 18.0001C30.852 16.8047 31.074 15.7852 31.449 14.9415C31.824 14.0743 32.223 13.3594 32.645 12.7969C33.066 12.2344 33.453 11.8243 33.805 11.5665C34.18 11.2852 34.414 11.1211 34.508 11.0743C34.672 11.004 34.824 10.9922 34.965 11.0391C35.105 11.0626 35.258 11.0976 35.422 11.1445C35.469 11.1679 35.516 11.2265 35.562 11.3203C35.656 11.4843 35.715 11.7891 35.738 12.2344C35.855 11.9766 36.008 11.7657 36.195 11.6016C36.383 11.4376 36.57 11.3203 36.758 11.25C36.992 11.1562 37.227 11.0977 37.461 11.0743C37.625 11.0508 37.906 11.1797 38.305 11.461C38.727 11.7422 39.125 12.1876 39.5 12.7969C39.898 13.4063 40.238 14.2032 40.52 15.1876C40.801 16.1485 40.906 17.3087 40.836 18.668ZM38.445 18.246C38.469 17.6836 38.445 17.1211 38.375 16.5587C38.328 15.9727 38.234 15.4454 38.094 14.9766C37.977 14.4844 37.824 14.0977 37.637 13.8165C37.449 13.5118 37.262 13.3594 37.074 13.3594C36.863 13.4063 36.629 13.5117 36.371 13.6757C36.16 13.8164 35.926 14.039 35.668 14.3437C35.41 14.6484 35.164 15.0821 34.93 15.6446C34.906 15.5743 34.883 15.4453 34.859 15.2578C34.836 15.0937 34.812 14.8829 34.789 14.6251C34.789 14.3438 34.812 13.9688 34.859 13.5001C34.531 13.8985 34.273 14.3671 34.086 14.9062C33.922 15.4453 33.793 15.9609 33.699 16.4531C33.605 17.039 33.535 17.6251 33.488 18.211C33.465 18.8438 33.488 19.4648 33.559 20.0742C33.652 20.6836 33.793 21.2227 33.98 21.6915C34.191 22.1602 34.438 22.5352 34.719 22.8165C35 23.0977 35.34 23.2265 35.738 23.2031C36.137 23.1796 36.488 23.0157 36.793 22.711C37.098 22.4063 37.367 22.0196 37.602 21.5508C37.836 21.0821 38.023 20.5547 38.164 19.9688C38.305 19.3828 38.398 18.8086 38.445 18.246ZM49.836 16.3126C50.328 16.5235 50.797 16.8633 51.242 17.3321C51.688 17.7774 51.969 18.457 52.086 19.371C52.18 20.1679 52.309 20.8828 52.473 21.5156C52.637 22.1484 52.871 22.7227 53.176 23.2383C53.48 23.7305 53.879 24.1757 54.371 24.5742C54.887 24.9492 55.543 25.2774 56.34 25.5587C56.129 25.7461 55.871 25.8984 55.566 26.0156C55.285 26.1328 55.016 26.2148 54.758 26.2617C54.453 26.3554 54.137 26.4024 53.809 26.4024C53.035 26.4727 52.402 26.3672 51.91 26.086C51.418 25.8282 51.031 25.4415 50.75 24.9258C50.469 24.4102 50.258 23.8126 50.117 23.1329C49.977 22.4532 49.871 21.7501 49.801 21.0235C49.777 20.7188 49.742 20.4023 49.695 20.0742C49.648 19.746 49.566 19.4297 49.449 19.1251C49.332 18.8204 49.168 18.5391 48.957 18.2812C48.77 18.0234 48.523 17.8243 48.219 17.6837C47.703 18.0821 47.223 18.4337 46.777 18.7383C46.355 19.0196 45.98 19.254 45.652 19.4415C45.676 20.7071 45.734 21.7501 45.828 22.5704C45.945 23.3907 46.098 23.9414 46.285 24.2226C46.121 24.3398 45.957 24.4454 45.793 24.5391C45.629 24.6094 45.488 24.668 45.371 24.7149C45.207 24.7852 45.055 24.8321 44.914 24.8555C44.445 24.9961 44.023 24.9726 43.648 24.7851C43.297 24.621 43.109 24.1641 43.086 23.4141L42.875 2.88285C42.875 2.69535 43.051 2.50785 43.402 2.32035C43.777 2.10935 44.188 1.94535 44.633 1.82815C45.078 1.71095 45.477 1.65235 45.828 1.65235C46.203 1.65235 46.379 1.75785 46.355 1.96875C46.285 3.58595 46.215 5.10935 46.145 6.53905C46.074 7.96875 46.016 9.23435 45.969 10.336C45.898 11.6251 45.84 12.7969 45.793 13.8516C45.746 14.4844 45.711 15.0937 45.688 15.6796C45.688 16.2656 45.676 16.8281 45.652 17.3671C46.098 17.0156 46.566 16.629 47.059 16.2071C47.551 15.7852 48.02 15.3164 48.465 14.8007C48.91 14.2851 49.285 13.7344 49.59 13.1485C49.895 12.5391 50.07 11.8946 50.117 11.2149C50.375 11.0274 50.633 10.875 50.891 10.7578C51.172 10.6171 51.418 10.5118 51.629 10.4415C51.887 10.3477 52.121 10.3007 52.332 10.3007C52.871 10.2773 53.188 10.3946 53.281 10.6524C53.352 10.8399 53.34 11.1211 53.246 11.4961C53.176 11.8477 53 12.2813 52.719 12.7969C52.461 13.2891 52.098 13.8398 51.629 14.4492C51.16 15.0351 50.562 15.6563 49.836 16.3126ZM55.672 12.2696C55.672 12.129 55.859 11.9766 56.234 11.8126C56.609 11.6485 57.02 11.5195 57.465 11.4257C57.934 11.3086 58.355 11.25 58.73 11.25C59.129 11.2265 59.328 11.3087 59.328 11.4961C59.328 11.8477 59.305 12.3515 59.258 13.0078C59.211 13.6406 59.152 14.3204 59.082 15.0469C59.012 15.7501 58.941 16.4649 58.871 17.1915C58.801 17.8946 58.754 18.4922 58.73 18.9844C58.684 19.5001 58.637 20.0626 58.59 20.6719C58.543 21.1876 58.508 21.7618 58.484 22.3946C58.461 23.0274 58.461 23.6718 58.484 24.3281C58.484 24.4453 58.367 24.5625 58.133 24.6796C57.898 24.7968 57.641 24.879 57.359 24.9258C57.078 24.9961 56.809 25.0312 56.551 25.0312C56.293 25.0312 56.152 24.9843 56.129 24.8906C56.082 24.7968 56.035 24.6329 55.988 24.3985C55.941 24.1641 55.895 23.836 55.848 23.4141C55.801 22.9688 55.766 22.4063 55.742 21.7266C55.719 21.0235 55.73 20.1797 55.777 19.1954C55.871 17.2501 55.883 15.75 55.812 14.6953C55.742 13.6171 55.695 12.8087 55.672 12.2696ZM58.133 5.27345C58.602 5.27345 59.047 5.41405 59.469 5.69535C59.891 5.97655 60.102 6.35155 60.102 6.82035C60.102 7.17185 60.008 7.51175 59.82 7.83985C59.656 8.16795 59.445 8.46095 59.188 8.71875C58.93 8.97655 58.637 9.18755 58.309 9.35155C57.98 9.49215 57.676 9.56255 57.395 9.56255C57.02 9.56255 56.715 9.50395 56.48 9.38675C56.246 9.24605 56.059 9.09375 55.918 8.92965C55.801 8.74215 55.719 8.54295 55.672 8.33205C55.625 8.12105 55.602 7.92185 55.602 7.73435C55.602 7.50005 55.637 7.24215 55.707 6.96095C55.777 6.65625 55.906 6.38675 56.094 6.15235C56.281 5.89455 56.539 5.68365 56.867 5.51955C57.195 5.35545 57.617 5.27345 58.133 5.27345ZM57.254 8.54295C57.395 8.54295 57.547 8.49605 57.711 8.40235C57.898 8.28515 58.062 8.15625 58.203 8.01565C58.367 7.87505 58.496 7.72265 58.59 7.55865C58.707 7.39455 58.766 7.25395 58.766 7.13675C58.766 6.94925 58.672 6.85545 58.484 6.85545C58.367 6.85545 58.215 6.90235 58.027 6.99605C57.863 7.08985 57.699 7.20705 57.535 7.34765C57.371 7.46485 57.23 7.60545 57.113 7.76955C57.02 7.91015 56.973 8.05075 56.973 8.19145C56.973 8.42575 57.066 8.54295 57.254 8.54295Z" fill="#0065FC"/>
</svg>
